<svg width="259" height="52" viewBox="0 0 259 52" fill="none" xmlns="http://www.w3.org/2000/svg">
<g clip-path="url(#clip0_1_4)">
<path d="M5.976 45V42.816H6.652C7.44933 42.816 8.16 42.7293 8.784 42.556C9.44267 42.3827 9.96267 42.036 10.344 41.516C10.7253 40.9613 10.916 40.1467 10.916 39.072V13.8C10.916 12.6907 10.7253 11.876 10.344 11.356C9.96267 10.836 9.44267 10.4893 8.784 10.316C8.16 10.1427 7.44933 10.056 6.652 10.056H5.976V7.872H21.108V10.056H20.432C19.6693 10.056 18.9587 10.1427 18.3 10.316C17.6413 10.4893 17.1213 10.836 16.74 11.356C16.3587 11.876 16.168 12.6907 16.168 13.8V39.072C16.168 40.1467 16.3587 40.9613 16.74 41.516C17.1213 42.036 17.6413 42.3827 18.3 42.556C18.9587 42.7293 19.6693 42.816 20.432 42.816H21.108V45H5.976ZM24.5498 45V42.816H24.9658C25.7631 42.816 26.4738 42.7293 27.0978 42.556C27.7564 42.3827 28.2764 42.036 28.6578 41.516C29.0391 40.9613 29.2298 40.1467 29.2298 39.072V22.848C29.2298 21.808 29.0391 21.0453 28.6578 20.56C28.2764 20.04 27.7738 19.7107 27.1498 19.572C26.5258 19.3987 25.8324 19.312 25.0698 19.312H24.8097V17.128H33.2338L33.9098 21.34H34.1698C34.8978 20.0227 35.6604 19.0347 36.4577 18.376C37.2898 17.6827 38.1911 17.2147 39.1618 16.972C40.1324 16.7293 41.1724 16.608 42.2818 16.608C45.0204 16.608 47.1524 17.4227 48.6778 19.052C50.2378 20.6467 51.0178 23.2293 51.0178 26.8V39.072C51.0178 40.1467 51.1738 40.9613 51.4858 41.516C51.8324 42.036 52.3004 42.3827 52.8898 42.556C53.4791 42.7293 54.1551 42.816 54.9178 42.816H55.1778V45H46.1298V27.06C46.1298 24.8067 45.6964 23.056 44.8298 21.808C43.9978 20.56 42.5244 19.936 40.4098 19.936C38.8498 19.936 37.6018 20.3347 36.6658 21.132C35.7644 21.8947 35.1058 22.9173 34.6898 24.2C34.3084 25.4827 34.1178 26.8693 34.1178 28.36V39.332C34.1178 40.3373 34.3084 41.1 34.6898 41.62C35.0711 42.1053 35.5738 42.4347 36.1978 42.608C36.8218 42.7467 37.5151 42.816 38.2778 42.816H38.5378V45H24.5498ZM57.5454 45V42.816H57.9614C58.7587 42.816 59.4694 42.7293 60.0934 42.556C60.752 42.3827 61.272 42.036 61.6534 41.516C62.0347 40.9613 62.2254 40.1467 62.2254 39.072V11.2C62.2254 10.16 62.0174 9.39733 61.6014 8.912C61.22 8.392 60.7 8.06266 60.0414 7.924C59.4174 7.75066 58.724 7.664 57.9614 7.664H57.5454V5.48H67.1134V25.552C67.1134 26.0027 67.096 26.592 67.0614 27.32C67.0614 28.048 67.044 28.776 67.0094 29.504C66.9747 30.232 66.94 30.856 66.9054 31.376C66.9054 31.8613 66.9054 32.104 66.9054 32.104L73.4054 24.98C74.168 24.148 74.74 23.4547 75.1214 22.9C75.5374 22.3107 75.832 21.8253 76.0054 21.444C76.1787 21.028 76.2654 20.664 76.2654 20.352C76.2654 19.9013 76.0574 19.624 75.6414 19.52C75.2254 19.3813 74.584 19.312 73.7174 19.312V17.128H85.2094V19.312C84.62 19.312 84.0307 19.416 83.4414 19.624C82.852 19.832 82.2627 20.144 81.6734 20.56C81.084 20.976 80.4774 21.496 79.8534 22.12C79.2294 22.7093 78.5707 23.3853 77.8774 24.148L74.2374 28.256L81.1534 38.552C81.7774 39.4533 82.3667 40.2333 82.9214 40.892C83.5107 41.516 84.1347 42.0013 84.7934 42.348C85.452 42.66 86.1627 42.816 86.9254 42.816H87.0814V45H86.3534C84.8627 45 83.6147 44.948 82.6094 44.844C81.604 44.74 80.7547 44.532 80.0614 44.22C79.4027 43.8733 78.7614 43.3707 78.1374 42.712C77.548 42.0187 76.8894 41.1 76.1614 39.956L70.9614 31.792L67.1134 34.652V39.332C67.1134 40.3373 67.304 41.1 67.6854 41.62C68.1014 42.1053 68.6214 42.4347 69.2454 42.608C69.904 42.7467 70.6147 42.816 71.3774 42.816H71.5334V45H57.5454ZM100.079 45.52C96.9247 45.52 94.342 44.2893 92.3313 41.828C90.3553 39.332 89.3673 35.6747 89.3673 30.856C89.3673 26.0027 90.3727 22.328 92.3833 19.832C94.394 17.336 97.0287 16.088 100.287 16.088C101.639 16.088 102.835 16.2787 103.875 16.66C104.915 17.0067 105.799 17.492 106.527 18.116C107.29 18.74 107.931 19.4507 108.451 20.248H108.711C108.607 19.6933 108.486 18.896 108.347 17.856C108.209 16.7813 108.139 15.6893 108.139 14.58V5.48H115.887V45H109.959L108.451 41.308H108.139C107.654 42.0707 107.03 42.7813 106.267 43.44C105.539 44.064 104.673 44.5667 103.667 44.948C102.662 45.3293 101.466 45.52 100.079 45.52ZM102.783 39.332C104.933 39.332 106.441 38.708 107.307 37.46C108.174 36.1773 108.625 34.2707 108.659 31.74V30.908C108.659 28.1347 108.226 26.02 107.359 24.564C106.527 23.108 104.967 22.38 102.679 22.38C100.981 22.38 99.646 23.1253 98.6753 24.616C97.7047 26.072 97.2193 28.1867 97.2193 30.96C97.2193 33.7333 97.7047 35.8307 98.6753 37.252C99.646 38.6387 101.015 39.332 102.783 39.332ZM149.782 30.752C149.782 33.1093 149.452 35.2067 148.794 37.044C148.17 38.8813 147.251 40.4413 146.038 41.724C144.859 42.972 143.42 43.9253 141.722 44.584C140.023 45.208 138.099 45.52 135.95 45.52C133.974 45.52 132.136 45.208 130.438 44.584C128.774 43.9253 127.335 42.972 126.122 41.724C124.908 40.4413 123.955 38.8813 123.262 37.044C122.603 35.2067 122.274 33.1093 122.274 30.752C122.274 27.5973 122.828 24.9453 123.938 22.796C125.047 20.612 126.642 18.948 128.722 17.804C130.802 16.66 133.263 16.088 136.106 16.088C138.775 16.088 141.132 16.66 143.178 17.804C145.223 18.948 146.835 20.612 148.014 22.796C149.192 24.9453 149.782 27.5973 149.782 30.752ZM130.178 30.752C130.178 32.624 130.368 34.2013 130.75 35.484C131.166 36.732 131.807 37.6853 132.674 38.344C133.54 38.968 134.667 39.28 136.054 39.28C137.44 39.28 138.55 38.968 139.382 38.344C140.248 37.6853 140.872 36.732 141.254 35.484C141.67 34.2013 141.878 32.624 141.878 30.752C141.878 28.88 141.67 27.32 141.254 26.072C140.872 24.824 140.248 23.888 139.382 23.264C138.515 22.64 137.388 22.328 136.002 22.328C133.956 22.328 132.466 23.0387 131.53 24.46C130.628 25.8467 130.178 27.944 130.178 30.752ZM176.333 35.068C176.195 34.4787 175.987 33.612 175.709 32.468C175.467 31.2893 175.189 30.0413 174.877 28.724C174.565 27.372 174.271 26.1413 173.993 25.032C173.716 23.888 173.525 23.056 173.421 22.536H173.213C173.109 23.056 172.919 23.888 172.641 25.032C172.399 26.1413 172.121 27.372 171.809 28.724C171.497 30.0413 171.203 31.2893 170.925 32.468C170.648 33.6467 170.44 34.548 170.301 35.172L168.013 45H159.693L151.633 16.608H159.329L162.605 29.192C162.848 30.0587 163.056 31.0987 163.229 32.312C163.437 33.5253 163.628 34.704 163.801 35.848C163.975 36.9573 164.096 37.8413 164.165 38.5H164.373C164.408 38.0147 164.477 37.3733 164.581 36.576C164.685 35.744 164.807 34.8947 164.945 34.028C165.119 33.1613 165.257 32.3813 165.361 31.688C165.5 30.96 165.604 30.4747 165.673 30.232L169.157 16.608H177.685L181.013 30.232C181.152 30.7173 181.308 31.4973 181.481 32.572C181.689 33.6467 181.863 34.7387 182.001 35.848C182.175 36.9573 182.261 37.8413 182.261 38.5H182.469C182.539 37.9107 182.66 37.0613 182.833 35.952C183.007 34.808 183.197 33.612 183.405 32.364C183.648 31.116 183.891 30.0587 184.133 29.192L187.513 16.608H195.105L186.941 45H178.517L176.333 35.068ZM215.824 16.088C218.875 16.088 221.319 16.92 223.156 18.584C224.994 20.2133 225.912 22.848 225.912 26.488V45H218.164V28.412C218.164 26.3667 217.8 24.8413 217.072 23.836C216.344 22.796 215.183 22.276 213.588 22.276C211.231 22.276 209.619 23.0907 208.752 24.72C207.886 26.3147 207.452 28.62 207.452 31.636V45H199.704V16.608H205.632L206.672 20.248H207.088C207.712 19.2773 208.475 18.4973 209.376 17.908C210.278 17.284 211.283 16.8333 212.392 16.556C213.502 16.244 214.646 16.088 215.824 16.088Z" fill="white"/>
<path d="M253.476 45.216H231.896V41.68H253.476V45.216Z" fill="#8B5CF6"/>
</g>
<defs>
<clipPath id="clip0_1_4">
<rect width="259" height="52" fill="white"/>
</clipPath>
</defs>
</svg>
